<?xml version="1.0" standalone="no"?>
<!DOCTYPE svg PUBLIC "-//W3C//DTD SVG 1.0//EN" "http://www.w3.org/TR/2001/REC-SVG-20010904/DTD/svg10.dtd">
<svg xmlns="http://www.w3.org/2000/svg" fill="#C5CDD9" xmlns:xlink="http://www.w3.org/1999/xlink" id="body_1" width="30" height="30">

<g transform="matrix(0.06833713 0 0 0.06833713 0 0)">
	<g transform="matrix(1.001065 0 0 1.001065 0 0)">
	</g>
    <path transform="matrix(1.001065 0 0 1.001065 0 0)"  d="M409.133 109.203C 389.525 75.61101 362.928 49.014 329.335 29.40701C 295.736 9.801 259.058 0 219.273 0C 179.492 0 142.803 9.801 109.21 29.407C 75.61499 49.011 49.01799 75.608 29.40999 109.203C 9.801 142.8 0 179.489 0 219.267C 0 259.047 9.804 295.73 29.407 329.329C 49.014 362.921 75.611 389.518 109.206 409.127C 142.803 428.732 179.489 438.534 219.269 438.534C 259.049 438.534 295.739 428.732 329.334 409.127C 362.927 389.525 389.523 362.921 409.129 329.329C 428.732 295.733 438.532 259.045 438.532 219.267C 438.533 179.485 428.732 142.795 409.133 109.203zM219.27 31.977C 266.471 31.977 307.68 47.584 342.891 78.797L342.891 78.797L339.322 83.78999C 337.895 85.79199 334.326 89.64199 328.618 95.355C 322.909 101.063 316.675 106.491 309.919 111.629C 303.157 116.769 293.979 122.621 282.364 129.188C 270.753 135.755 258.382 141.516 245.247 146.464C 223.36 106.109 199.951 69.755 175.016 37.4C 190.055 33.784 204.805 31.977 219.27 31.977zM72.524 103.06C 90.795 80.034 113.061 62.33 139.33 49.96C 162.931 81.365 186.15 117.341 208.992 157.881C 151.13 173.108 93.46001 180.722 35.978 180.719C 42.072 151.98 54.253 126.091 72.524 103.06zM44.54 286.794C 36.164 265.382 31.977 242.871 31.977 219.267C 31.977 216.601 32.075 214.602 32.263 213.271C 101.168 213.271 165.218 204.423 224.412 186.718C 230.504 198.518 235.548 209.082 239.545 218.411C 238.774 218.791 237.546 219.217 235.832 219.694C 234.113 220.17 232.879 220.5 232.111 220.693L232.111 220.693L221.55 224.404C 214.314 227.07 204.842 231.639 193.141 238.107C 181.437 244.585 169.018 252.289 155.884 261.237C 142.75 270.186 129.188 282.034 115.2 296.79C 101.21 311.54 89.457 327.381 79.94 344.32C 64.713 327.381 52.914 308.2 44.54 286.794zM219.27 406.56C 174.73 406.56 134.95 392.283 99.927 363.735L99.927 363.735L104.21 366.877C 110.871 352.217 120.672 338.131 133.618 324.62C 146.562 311.109 159.028 300.207 171.019 291.925C 183.01 283.651 196.047 275.848 210.134 268.511C 224.218 261.188 233.825 256.52 238.969 254.528C 244.109 252.53 248.202 250.956 251.247 249.812L251.247 249.812L251.815 249.525L252.39 249.525C 271.037 298.441 284.367 345.838 292.358 391.709C 268.756 401.611 244.397 406.557 219.27 406.56zM376.876 320.479C 362.79 342.275 345.18 360.313 324.059 374.583C 316.249 330.807 304.074 286.168 287.51 240.681C 325.387 234.774 364.31 237.539 404.281 248.955C 400.092 274.841 390.955 298.687 376.876 320.479zM403.706 216.698C 401.803 216.32 399.421 215.888 396.567 215.415C 393.713 214.942 390.236 214.368 386.143 213.702C 382.056 213.036 377.481 212.419 372.441 211.847C 367.396 211.276 362.02 210.754 356.305 210.278C 350.597 209.8 344.505 209.423 338.037 209.135C 331.558 208.851 324.995 208.707 318.332 208.707C 311.676 208.707 304.675 208.9 297.351 209.278C 290.025 209.653 282.937 210.327 276.086 211.277C 275.511 210.324 274.799 208.753 273.943 206.563C 273.088 204.376 272.464 202.708 272.095 201.566C 268.474 193.572 264.285 184.53 259.522 174.445C 272.656 169.112 285.174 162.976 297.077 156.027C 308.969 149.078 318.479 142.896 325.621 137.472C 332.76 132.042 339.516 126.284 345.891 120.195C 352.27 114.105 356.404 109.872 358.314 107.492C 360.22 105.108 362.027 102.778 363.738 100.497L363.738 100.497L364.025 100.209C 391.813 134.089 405.999 173.106 406.563 217.268L406.563 217.268L403.706 216.698z" stroke="none" fill="#000000" fill-rule="nonzero" />
</g>
</svg>