<svg id="Capa_1" enable-background="new 0 0 511.997 511.997" height="512" viewBox="0 0 511.997 511.997" width="512" xmlns="http://www.w3.org/2000/svg"><g><g><path d="m348.211 115.115h79.094v226.347h-79.094z" fill="#b2caec"/><path d="m397.446 115.115h33.842v226.347h-33.842z" fill="#82aee3"/><path d="m428.322 98.47h-81.129c-3.533 0-6.397 2.864-6.397 6.397v19.108c0 3.533 2.864 6.397 6.397 6.397h81.129c3.533 0 6.397-2.864 6.397-6.397v-19.108c.001-3.532-2.864-6.397-6.397-6.397z" fill="#528fd8"/><path d="m389.535 72.861c1.878 1.511 4.554 1.51 6.43-.002l23.08-18.595c5.877-4.735 10.189-11.133 12.371-18.358 1.89-6.257.601-13.043-3.452-18.171-5.611-7.1-15.292-9.543-23.6-5.958-4.523 1.878-8.19 4.332-11.632 7.433-3.428-3.09-7.094-5.549-11.632-7.433-8.308-3.586-17.989-1.142-23.6 5.958-4.053 5.128-5.342 11.914-3.452 18.171 2.182 7.225 6.494 13.623 12.371 18.358z" fill="#eb5569"/><path d="m428.322 98.47h-33.842c3.533 0 6.397 2.864 6.397 6.398v19.107c0 3.533-2.864 6.397-6.397 6.397h33.842c3.533 0 6.397-2.864 6.397-6.397v-19.107c.001-3.533-2.864-6.398-6.397-6.398z" fill="#0473ce"/><g><path d="m427.965 17.734c-5.611-7.1-15.292-9.543-23.6-5.957-1.851.769-3.553 1.639-5.161 2.606 1.235.965 2.374 2.08 3.379 3.352 4.053 5.128 5.342 11.914 3.452 18.171-2.182 7.225-6.494 13.623-12.371 18.359l-13.612 10.965 9.483 7.63c1.878 1.511 4.554 1.51 6.43-.002l23.08-18.595c5.877-4.735 10.189-11.134 12.371-18.359 1.89-6.256.601-13.042-3.451-18.17z" fill="#e53950"/></g><path d="m256 105.83-175.288 151.626v234.683c0 5.334 4.324 9.658 9.658 9.658h331.26c5.334 0 9.658-4.324 9.658-9.658v-234.683z" fill="#fdd1d5"/><path d="m402.941 260.956v231.183c0 5.334-4.324 9.658-9.658 9.658h28.346c5.334 0 9.658-4.324 9.658-9.658v-206.663z" fill="#f6b2bb"/><path d="m388.255 432.154h-98.494c-3.846 0-6.964-3.118-6.964-6.964v-76.763c0-3.846 3.118-6.964 6.964-6.964h98.494c3.846 0 6.964 3.118 6.964 6.964v76.763c0 3.846-3.118 6.964-6.964 6.964z" fill="#c0d6f2"/><path d="m246.98 501.797h-98.363v-152.376c0-3.846 3.118-6.964 6.964-6.964h84.435c3.846 0 6.964 3.118 6.964 6.964z" fill="#528fd8"/><g><path d="m339.008 439.616c-4.121 0-7.462-3.341-7.462-7.462v-90.692c0-4.121 3.341-7.462 7.462-7.462s7.462 3.341 7.462 7.462v90.692c0 4.121-3.341 7.462-7.462 7.462z" fill="#528fd8"/></g><g><path d="m395.219 394.27h-112.423c-4.121 0-7.462-3.341-7.462-7.462s3.341-7.462 7.462-7.462h112.423c4.121 0 7.462 3.341 7.462 7.462s-3.341 7.462-7.462 7.462z" fill="#528fd8"/></g><g><path d="m173.259 444.755c-4.121 0-7.462-3.341-7.462-7.462v-15.918c0-4.121 3.341-7.462 7.462-7.462s7.462 3.341 7.462 7.462v15.918c0 4.121-3.341 7.462-7.462 7.462z" fill="#0055a3"/></g><g><path d="m388.255 439.616h-98.494c-7.954 0-14.426-6.472-14.426-14.426v-76.764c0-7.954 6.472-14.426 14.426-14.426h98.494c7.954 0 14.426 6.472 14.426 14.426v76.764c0 7.954-6.472 14.426-14.426 14.426zm-97.997-14.924h97.499v-75.769h-97.499z" fill="#528fd8"/></g><g><path d="m388.255 334h-28.202c7.954 0 14.426 6.472 14.426 14.426v.497h13.278v75.769h-13.278v.497c0 7.954-6.472 14.426-14.426 14.426h28.202c7.954 0 14.426-6.472 14.426-14.426v-76.764c0-7.953-6.472-14.425-14.426-14.425z" fill="#0473ce"/></g><path d="m395.219 379.347h-28.202c4.121 0 7.462 3.341 7.462 7.462s-3.341 7.462-7.462 7.462h28.202c4.121 0 7.462-3.341 7.462-7.462s-3.341-7.462-7.462-7.462z" fill="#0473ce"/><path d="m431.288 329.061v-63.129l-180.187-155.865-170.389 147.389v12.77l137.367-118.824c2.242-1.94 5.568-1.94 7.811 0l205.096 177.411c.099.085.202.164.302.248z" fill="#f6b2bb"/><g><path d="m465.001 328.812-205.096-177.411c-2.242-1.94-5.568-1.94-7.811 0l-205.095 177.411c-9.974 8.627-25.052 7.536-33.68-2.438-8.627-9.974-7.536-25.052 2.438-33.68l229.829-198.805c5.979-5.172 14.849-5.172 20.828 0l229.829 198.806c9.973 8.627 11.065 23.706 2.438 33.68-8.627 9.973-23.706 11.064-33.68 2.437z" fill="#e53950"/></g></g><g><path d="m501.15 287.02-61.375-53.09v-97.674c4.405-2.334 7.415-6.961 7.415-12.284v-19.107c0-7.663-6.234-13.897-13.897-13.897h-81.129c-7.663 0-13.897 6.234-13.897 13.897v19.107c0 5.322 3.01 9.95 7.415 12.284v16.281l-20.28-17.543c-3.133-2.709-7.869-2.366-10.579.766-2.71 3.133-2.367 7.869.766 10.579 12.788 11.062 172.102 148.87 175.75 152.026 6.826 5.905 7.598 16.25 1.671 23.101-5.904 6.826-16.25 7.599-23.101 1.672l-33.709-29.159c-.001-.001-.003-.003-.004-.004-7.16-6.193-164.404-142.212-171.383-148.249-5.031-4.351-12.555-4.387-17.624 0-10.908 9.435-198.985 172.124-205.097 177.411-10.529 9.108-27.092 1.664-27.092-12.376 0-4.765 2.064-9.283 5.664-12.396 11.32-9.792 211.151-182.65 229.829-198.806 3.163-2.736 7.856-2.731 11.015 0l27.609 23.882c3.134 2.71 7.869 2.367 10.579-.766s2.367-7.869-.766-10.579l-27.61-23.883c-8.802-7.612-21.854-7.6-30.641 0-29.332 25.374-218.659 189.145-229.828 198.807-6.896 5.964-10.851 14.617-10.851 23.741 0 26.957 31.774 41.133 51.905 23.721l21.307-18.431v98.476c0 4.142 3.358 7.5 7.5 7.5s7.5-3.358 7.5-7.5v-111.451c7.107-6.148 161.067-139.325 167.788-145.139 8.226 7.116 159.46 137.935 167.788 145.139v189.06c0 .322-.067.629-.199.911v.001c-.271.575-.945 1.246-1.958 1.246h-167.151v-145.87c0-7.976-6.489-14.464-14.464-14.464h-84.435c-7.976 0-14.464 6.488-14.464 14.464v145.87h-50.747c-1.19 0-2.158-.968-2.158-2.158v-42.609c0-4.142-3.358-7.5-7.5-7.5s-7.5 3.358-7.5 7.5v42.609c0 9.461 7.697 17.158 17.158 17.158h331.26c9.334 0 17.158-7.576 17.158-17.158v-176.085l21.306 18.43c13.103 11.337 32.928 9.897 44.259-3.203 11.337-13.107 9.896-32.929-3.203-44.258zm-76.375-66.066-64.094-55.442v-27.642h64.094zm7.415-98.084h-78.924v-16.902h78.924zm-192.71 370.429h-83.363v-144.339h83.363z"/><path d="m361.719 60.104 23.114 18.597c4.586 3.69 11.247 3.692 15.837-.005l23.081-18.595c13.525-10.897 22.425-31.423 10.098-47.02-8.823-11.166-24.837-14.807-41.116-3.452-16.63-11.597-32.575-7.356-41.116 3.453-12.311 15.577-3.442 36.109 10.102 47.022zm1.667-37.723c6.56-8.3 16.499-4.657 24.326 2.397 2.854 2.571 7.189 2.572 10.042 0 7.874-7.097 17.79-10.663 24.326-2.396 6.708 8.488-.749 20.406-7.741 26.039l-21.592 17.396-21.621-17.397c-7.082-5.706-14.418-17.588-7.74-26.039z"/><path d="m388.255 439.652c7.976 0 14.464-6.489 14.464-14.464v-76.764c0-7.976-6.488-14.464-14.464-14.464h-98.495c-7.976 0-14.464 6.488-14.464 14.464v76.764c0 7.976 6.489 14.464 14.464 14.464zm-41.747-90.692h41.211v30.346h-41.211zm0 45.345h41.211v30.346h-41.211zm-56.212-45.345h41.211v30.346h-41.211zm0 45.345h41.211v30.346h-41.211z"/><path d="m173.259 444.79c4.142 0 7.5-3.358 7.5-7.5v-15.918c0-4.142-3.358-7.5-7.5-7.5s-7.5 3.358-7.5 7.5v15.918c0 4.142 3.358 7.5 7.5 7.5z"/></g></g></svg>