<svg xmlns="http://www.w3.org/2000/svg" xmlns:xlink="http://www.w3.org/1999/xlink" version="1.1" viewBox="0 0 1490 450" style="enable-background:new 0 0 1490 450;" xml:space="preserve"><link xmlns="" type="text/css" rel="stylesheet" id="dark-mode-custom-link"/><link xmlns="" type="text/css" rel="stylesheet" id="dark-mode-general-link"/><style xmlns="" lang="en" type="text/css" id="dark-mode-custom-style"/><style xmlns="" lang="en" type="text/css" id="dark-mode-native-style"/>
<style type="text/css">
	.st0{fill:#FF5A5F;}
	.st1{fill:#484848;}
</style>
<g>
	<path class="st0" d="M273.8,410.3c0,8.7-7,15.7-15.7,15.7H80.7C72,426,65,419,65,410.3V194.1c0-4.7,2.1-9.1,5.6-12.1L255.9,27.6   c5.8-4.9,14.3-4.9,20.1,0l185.3,154.4c6.7,5.6,7.6,15.5,2,22.1c-5.6,6.7-15.5,7.6-22.1,2L266,60.1L96.4,201.5v193.1h161.7   C266.8,394.6,273.8,401.6,273.8,410.3z M442.1,367.8c-17.2,20.8-43,39.8-76.5,56.5c-4.4,2.2-9.6,2.2-14,0   c-33.5-16.7-59.2-35.8-76.5-56.5c-51.1-61.7-15.5-129.7,37.2-129.7c21,0,36.4,8.6,46.3,16.7c9.9-8.1,25.3-16.7,46.3-16.7   C457.7,238.1,493.1,306.3,442.1,367.8z M404.9,269.5c-21.7,0-33.1,16.3-33.2,16.4c-6.5,9.8-20.3,9.2-26.1,0.1   c-1-1.4-12.2-16.5-33.3-16.5c-33.8,0-62.9,65.2,46.3,123.1C467.9,334.7,438.8,269.5,404.9,269.5z"/>
	<g>
		<path class="st1" d="M761.7,157.4c2.9,3,4.3,6.9,4.3,11.8v149.2c0,4.9-1.5,8.9-4.4,12c-3,3.1-6.8,4.6-11.6,4.6    c-4.9,0-8.8-1.5-11.7-4.6c-2.9-3.1-4.3-7-4.3-12v-62.8h-91.8v62.8c0,4.9-1.5,8.9-4.5,12s-6.9,4.6-11.8,4.6    c-4.7,0-8.6-1.5-11.6-4.6c-3-3.1-4.5-7-4.5-12V169.3c0-4.9,1.4-8.9,4.3-11.8c2.9-3,6.8-4.4,11.7-4.4c4.9,0,8.9,1.5,11.8,4.4    c3,3,4.5,6.9,4.5,11.8v60H734v-60c0-4.9,1.4-8.9,4.3-11.8c2.9-3,6.8-4.4,11.7-4.4C754.9,153,758.8,154.5,761.7,157.4z"/>
		<path class="st1" d="M825.2,327.7c-9.6-5.3-17-12.8-22.2-22.6c-5.3-9.8-7.9-21.3-7.9-34.3s2.6-24.4,7.9-34.2    c5.2-9.7,12.7-17.2,22.2-22.5c9.6-5.2,20.7-7.9,33.4-7.9c12.7,0,23.9,2.6,33.4,7.9c9.6,5.3,16.9,12.8,22.1,22.5    c5.2,9.7,7.8,21.1,7.8,34.2s-2.6,24.5-7.8,34.3c-5.2,9.8-12.5,17.4-22.1,22.6c-9.6,5.2-20.7,7.9-33.4,7.9    C845.9,335.5,834.7,332.9,825.2,327.7z M882,300.7c5.4-6.8,8.1-16.8,8.1-30c0-13.1-2.7-23-8.1-29.9c-5.4-6.9-13.2-10.3-23.4-10.3    s-18,3.4-23.5,10.3c-5.5,6.9-8.3,16.8-8.3,29.9c0,13.2,2.7,23.2,8.1,30c5.4,6.8,13.2,10.2,23.4,10.2    C868.7,310.9,876.6,307.5,882,300.7z"/>
		<path class="st1" d="M1126.9,218.2c7.2,8.1,10.8,21.1,10.8,39v62.5c0,4.9-1.5,8.7-4.5,11.3c-3,2.6-6.8,3.9-11.6,3.9    c-4.6,0-8.3-1.3-11.3-3.9c-3-2.6-4.5-6.4-4.5-11.3v-62.5c0-9.3-1.7-16-5-20c-3.3-4-8.4-6-15.1-6c-8.3,0-14.9,2.8-19.8,8.5    c-4.9,5.7-7.4,13.4-7.4,23.3v56.7c0,4.9-1.5,8.7-4.5,11.3c-3,2.6-6.7,3.9-11.3,3.9c-4.6,0-8.4-1.3-11.4-3.9    c-3.1-2.6-4.6-6.4-4.6-11.3v-62.5c0-9.3-1.7-16-5-20c-3.3-4-8.4-6-15.1-6c-8.3,0-14.9,2.8-19.7,8.5c-4.8,5.7-7.2,13.4-7.2,23.3    v56.7c0,4.9-1.5,8.7-4.6,11.3c-3.1,2.6-6.9,3.9-11.4,3.9c-4.6,0-8.4-1.3-11.3-3.9c-3-2.6-4.5-6.4-4.5-11.3v-98.4    c0-4.7,1.5-8.4,4.6-10.9c3.1-2.5,6.9-3.8,11.4-3.8c4.4,0,8,1.2,10.8,3.7c2.8,2.5,4.2,6,4.2,10.6v6.1c3.9-6.8,9.1-11.9,15.6-15.5    c6.5-3.6,14-5.3,22.5-5.3c18.6,0,31.1,7.8,37.4,23.4c3.7-7.1,9.2-12.8,16.5-17c7.3-4.2,15.5-6.4,24.7-6.4    C1109.4,206.1,1119.7,210.2,1126.9,218.2z"/>
		<path class="st1" d="M1275.4,302.7c1.8,2.2,2.7,5.2,2.7,8.9c0,5.3-3.1,9.7-9.4,13.2c-5.8,3.2-12.3,5.8-19.6,7.8    c-7.3,1.9-14.2,2.9-20.8,2.9c-20,0-35.8-5.8-47.5-17.3c-11.7-11.5-17.5-27.3-17.5-47.3c0-12.7,2.5-24,7.6-33.8    c5.1-9.8,12.2-17.5,21.5-22.9c9.2-5.4,19.7-8.1,31.4-8.1c11.2,0,20.9,2.5,29.2,7.4c8.3,4.9,14.7,11.9,19.3,20.8    c4.6,9,6.9,19.6,6.9,31.8c0,7.3-3.2,10.9-9.7,10.9h-75c1,11.7,4.3,20.3,9.9,25.8c5.6,5.5,13.7,8.3,24.4,8.3c5.4,0,10.2-0.7,14.4-2    c4.1-1.3,8.9-3.2,14.1-5.6c5.1-2.7,8.8-4.1,11.2-4.1C1271.3,299.4,1273.6,300.5,1275.4,302.7z M1203.7,236.6    c-5.2,5.4-8.3,13.2-9.3,23.4h57.5c-0.3-10.3-2.9-18.2-7.6-23.5c-4.7-5.3-11.4-8-19.8-8C1215.8,228.5,1208.9,231.2,1203.7,236.6z"/>
		<path class="st1" d="M1328.3,327.7c-9.6-5.3-17-12.8-22.2-22.6c-5.3-9.8-7.9-21.3-7.9-34.3s2.6-24.4,7.9-34.2    c5.2-9.7,12.7-17.2,22.2-22.5c9.6-5.2,20.7-7.9,33.4-7.9s23.9,2.6,33.4,7.9c9.6,5.3,16.9,12.8,22.1,22.5    c5.2,9.7,7.8,21.1,7.8,34.2s-2.6,24.5-7.8,34.3c-5.2,9.8-12.5,17.4-22.1,22.6c-9.6,5.2-20.7,7.9-33.4,7.9    S1337.9,332.9,1328.3,327.7z M1385.1,300.7c5.4-6.8,8.1-16.8,8.1-30c0-13.1-2.7-23-8.1-29.9c-5.4-6.9-13.2-10.3-23.4-10.3    c-10.2,0-18,3.4-23.5,10.3c-5.5,6.9-8.3,16.8-8.3,29.9c0,13.2,2.7,23.2,8.1,30c5.4,6.8,13.2,10.2,23.4,10.2    C1371.8,310.9,1379.7,307.5,1385.1,300.7z"/>
	</g>
</g>
</svg>