<?xml version="1.0" encoding="iso-8859-1"?>
<!-- Generator: Adobe Illustrator 19.0.0, SVG Export Plug-In . SVG Version: 6.00 Build 0)  -->
<svg version="1.1" fill="#C5CDD9" id="Layer_1" xmlns="http://www.w3.org/2000/svg" xmlns:xlink="http://www.w3.org/1999/xlink" x="0px" y="0px"
	 viewBox="0 0 504 504" style="enable-background:new 0 0 504 504;" xml:space="preserve">
<g>
	<g>
		<path d="M377.6,0H126C56.8,0,0,56.8,0,126.4V378c0,69.2,56.8,126,126,126h251.6c69.6,0,126.4-56.8,126.4-126.4V126.4
			C504,56.8,447.2,0,377.6,0z M277.2,322c-20,0-39.2-10.4-45.6-22.4c0,0-10.8,41.6-13.2,49.6c-8,28.4-32,56.8-33.6,59.2
			c-1.2,1.6-4,1.2-4.4-1.2c-0.4-3.6-6.4-39.6,0.4-68.8c3.6-14.8,24-98.4,24-98.4s-6-11.6-6-28.4c0-26.8,16-46.8,36-46.8
			c16.8,0,25.2,12.4,25.2,27.2c0,16.4-10.8,41.2-16.4,64c-4.8,19.2,10,34.8,29.6,34.8c35.2,0,59.2-44,59.2-96
			c0-39.6-27.6-69.2-77.6-69.2c-56.4,0-92,40.8-92,86.4c0,15.6,4.8,26.8,12.4,35.6c3.6,4,4,5.6,2.8,10c-0.8,3.2-2.8,11.2-4,14.4
			c-1.2,4.4-5.2,6.4-9.2,4.4c-26-10.4-38-38-38-69.2c0-51.2,44.8-112.8,133.2-112.8c71.2,0,118,50,118,103.6
			C377.6,269.2,337.2,322,277.2,322z"/>
	</g>
</g>
<g>
</g>
<g>
</g>
<g>
</g>
<g>
</g>
<g>
</g>
<g>
</g>
<g>
</g>
<g>
</g>
<g>
</g>
<g>
</g>
<g>
</g>
<g>
</g>
<g>
</g>
<g>
</g>
<g>
</g>
</svg>
