<?xml version="1.0" standalone="no"?>
<!DOCTYPE svg PUBLIC "-//W3C//DTD SVG 1.0//EN" "http://www.w3.org/TR/2001/REC-SVG-20010904/DTD/svg10.dtd">
<svg xmlns="http://www.w3.org/2000/svg" xmlns:xlink="http://www.w3.org/1999/xlink" id="body_1" width="30" height="30">

<g transform="matrix(1.5 0 0 1.5 0 0)">
	<g transform="matrix(0.0390625 0 0 0.0390625 0 0)">
	</g>
    <path transform="matrix(0.0390625 0 0 0.0390625 0 0)"  d="M454.426 392.582C 448.987 376.262 439.128 359.8 424.587 350.22C 396.608 331.648 364.009 321.741 332.488 311.135C 324.884 308.471 317.158 305.567 310.209 301.435C 304.005 297.749 301.676 290.189 300.235 283.549C 299.599 280.037 299.209 276.433 299.007 272.888C 321.864 241.621 337.026 190.593 337.026 148.752C 337.026 83.454 300.13 65.257 254.624 65.257C 209.109 65.257 172.221 83.42699 172.221 148.725C 172.221 192.063 188.476 245.225 212.71 276.108C 212.489 278.546 212.199 280.984 211.76 283.411C 210.316 290.05 207.99 297.469 201.79 301.154C 194.833 305.287 187.108 307.91 179.503 310.574C 147.982 321.179 115.384 330.531 87.41202 349.103C 72.86302 358.683 63.00902 376.262 57.57402 392.582C 51.97702 409.52 49.68802 430.499 50.03302 447.499L50.03302 447.499L255.991 447.499L461.965 447.499C 462.313 430.5 460.019 409.521 454.426 392.582z" stroke="none" fill="#020201" fill-rule="nonzero" />
</g>
</svg>